<mxfile host="localhost" agent="Mozilla/5.0 (Windows NT 10.0; Win64; x64; rv:138.0) Gecko/20100101 Firefox/138.0" version="26.2.15">
  <diagram name="Page-1" id="_Z23KyMV60q3cjRmK_Ht">
    <mxGraphModel dx="464" dy="471" grid="1" gridSize="10" guides="1" tooltips="1" connect="1" arrows="1" fold="1" page="1" pageScale="1" pageWidth="850" pageHeight="1100" math="0" shadow="0">
      <root>
        <mxCell id="0" />
        <mxCell id="1" parent="0" />
        <mxCell id="DZLL1J4xDUtUSzz_9PGh-1" value="SW1" style="whiteSpace=wrap;html=1;aspect=fixed;fillColor=#60a917;fontColor=#ffffff;strokeColor=#2D7600;" parent="1" vertex="1">
          <mxGeometry x="355" y="400" width="130" height="130" as="geometry" />
        </mxCell>
        <mxCell id="DZLL1J4xDUtUSzz_9PGh-2" value="R1" style="ellipse;whiteSpace=wrap;html=1;fillColor=#a20025;fontColor=#ffffff;strokeColor=#6F0000;" parent="1" vertex="1">
          <mxGeometry x="360" y="100" width="120" height="80" as="geometry" />
        </mxCell>
        <mxCell id="DZLL1J4xDUtUSzz_9PGh-4" value="" style="endArrow=classic;html=1;rounded=0;entryX=0.5;entryY=0;entryDx=0;entryDy=0;exitX=0.5;exitY=1;exitDx=0;exitDy=0;" parent="1" source="DZLL1J4xDUtUSzz_9PGh-2" target="DZLL1J4xDUtUSzz_9PGh-1" edge="1">
          <mxGeometry relative="1" as="geometry">
            <mxPoint x="420" y="190" as="sourcePoint" />
            <mxPoint x="510" y="430" as="targetPoint" />
          </mxGeometry>
        </mxCell>
        <mxCell id="DZLL1J4xDUtUSzz_9PGh-6" value="R1&lt;br&gt;Eth0/0&lt;br&gt;Eth0/0.10&lt;br&gt;&amp;nbsp;&amp;nbsp;&amp;nbsp; 10.10.10.1/24&lt;br&gt;Eth0/0.30&lt;br&gt;&amp;nbsp;&amp;nbsp;&amp;nbsp; 10.10.30.1/24&lt;br&gt;&lt;br&gt;SW1&lt;br&gt;Eth0/2&lt;br&gt;encapsulation dot1q&lt;br&gt;Trunk VLANS 10,30" style="edgeLabel;resizable=0;html=1;;align=left;verticalAlign=bottom;" parent="DZLL1J4xDUtUSzz_9PGh-4" connectable="0" vertex="1">
          <mxGeometry x="-1" relative="1" as="geometry">
            <mxPoint x="10" y="160" as="offset" />
          </mxGeometry>
        </mxCell>
        <mxCell id="DZLL1J4xDUtUSzz_9PGh-9" value="R2" style="ellipse;whiteSpace=wrap;html=1;fillColor=#a20025;fontColor=#ffffff;strokeColor=#6F0000;" parent="1" vertex="1">
          <mxGeometry x="680" y="100" width="120" height="80" as="geometry" />
        </mxCell>
        <mxCell id="DZLL1J4xDUtUSzz_9PGh-16" value="" style="endArrow=classic;html=1;rounded=0;entryX=0;entryY=0.5;entryDx=0;entryDy=0;exitX=1;exitY=0.5;exitDx=0;exitDy=0;" parent="1" source="DZLL1J4xDUtUSzz_9PGh-2" target="DZLL1J4xDUtUSzz_9PGh-9" edge="1">
          <mxGeometry relative="1" as="geometry">
            <mxPoint x="350" y="430" as="sourcePoint" />
            <mxPoint x="510" y="430" as="targetPoint" />
          </mxGeometry>
        </mxCell>
        <mxCell id="DZLL1J4xDUtUSzz_9PGh-17" value="Eth0/1&lt;br&gt;1.1.1.0/30&lt;br&gt;Eth0/1" style="edgeLabel;resizable=0;html=1;;align=center;verticalAlign=middle;" parent="DZLL1J4xDUtUSzz_9PGh-16" connectable="0" vertex="1">
          <mxGeometry relative="1" as="geometry" />
        </mxCell>
        <mxCell id="DZLL1J4xDUtUSzz_9PGh-23" value="PC1&lt;br&gt;10.10.10.100/24" style="rhombus;whiteSpace=wrap;html=1;fillColor=#0050ef;fontColor=#ffffff;strokeColor=#001DBC;" parent="1" vertex="1">
          <mxGeometry x="260" y="630" width="120" height="130" as="geometry" />
        </mxCell>
        <mxCell id="DZLL1J4xDUtUSzz_9PGh-24" value="PC2&lt;br&gt;10.10.30.100/24" style="rhombus;whiteSpace=wrap;html=1;fillColor=#0050ef;fontColor=#ffffff;strokeColor=#001DBC;" parent="1" vertex="1">
          <mxGeometry x="480" y="630" width="120" height="130" as="geometry" />
        </mxCell>
        <mxCell id="DZLL1J4xDUtUSzz_9PGh-25" value="" style="endArrow=classic;html=1;rounded=0;entryX=0.5;entryY=0;entryDx=0;entryDy=0;exitX=0.25;exitY=1;exitDx=0;exitDy=0;" parent="1" source="DZLL1J4xDUtUSzz_9PGh-1" target="DZLL1J4xDUtUSzz_9PGh-23" edge="1">
          <mxGeometry relative="1" as="geometry">
            <mxPoint x="350" y="430" as="sourcePoint" />
            <mxPoint x="510" y="430" as="targetPoint" />
          </mxGeometry>
        </mxCell>
        <mxCell id="DZLL1J4xDUtUSzz_9PGh-26" value="Eth0/0&lt;br&gt;VLAN10&lt;br&gt;eth0" style="edgeLabel;resizable=0;html=1;;align=center;verticalAlign=middle;" parent="DZLL1J4xDUtUSzz_9PGh-25" connectable="0" vertex="1">
          <mxGeometry relative="1" as="geometry" />
        </mxCell>
        <mxCell id="DZLL1J4xDUtUSzz_9PGh-29" value="" style="endArrow=classic;html=1;rounded=0;entryX=0.5;entryY=0;entryDx=0;entryDy=0;exitX=0.75;exitY=1;exitDx=0;exitDy=0;" parent="1" source="DZLL1J4xDUtUSzz_9PGh-1" target="DZLL1J4xDUtUSzz_9PGh-24" edge="1">
          <mxGeometry relative="1" as="geometry">
            <mxPoint x="350" y="430" as="sourcePoint" />
            <mxPoint x="510" y="430" as="targetPoint" />
          </mxGeometry>
        </mxCell>
        <mxCell id="DZLL1J4xDUtUSzz_9PGh-30" value="Eth0/1&lt;br&gt;VLAN30&lt;br&gt;eth0" style="edgeLabel;resizable=0;html=1;;align=center;verticalAlign=middle;" parent="DZLL1J4xDUtUSzz_9PGh-29" connectable="0" vertex="1">
          <mxGeometry relative="1" as="geometry" />
        </mxCell>
        <mxCell id="lncu6gNNt6xf-EPf5wCk-1" value="Global Settings: &lt;br&gt;* Correct encapsulation on trunk and subinterfaces&lt;br&gt;* NTP Server 192.168.100.100&lt;br&gt;* Port descriptions automatically derived&lt;br&gt;* Assume all interfaces are Ethernet interfaces (not serial or FastEthernet)" style="rounded=0;whiteSpace=wrap;html=1;fillColor=#1ba1e2;fontColor=#ffffff;strokeColor=#006EAF;" parent="1" vertex="1">
          <mxGeometry x="60" y="130" width="260" height="130" as="geometry" />
        </mxCell>
      </root>
    </mxGraphModel>
  </diagram>
</mxfile>
